# xmcd
#
# Track frame offsets:
#	150
#	16511
#	33841
#	54841
#	69335
#	82623
#	96538
#	108237
#	126358
#	140027
#	150100
#	171914
#	194566
#	218816
#	234730
#	252802
#	265365
#	289190
#
# Disc length: 4029 seconds
#
# Revision: 0
# Processed by: cddbd v1.5.2PL0 Copyright (c) Steve Scherf et al.
# Submitted via: dBpowerAMP V4.0
#
DISCID=f10fbb12
DTITLE=Townes van Zandt - Buckskin Stallion
DYEAR=2005
DGENRE=Country
TTITLE0=Quicksilver dreams of Maria
TTITLE1=Many a fine lady
TTITLE2=Sad Cinderella
TTITLE3=The velvet voices
TTITLE4=All your young servants
TTITLE5=Talkin' karate blues
TTITLE6=Sixteen summers, fifteen falls
TTITLE7=She came and she touched me
TTITLE8=Like a summer Thursday
TTITLE9=Second lover's song
TTITLE10=Tecumseh
TTITLE11=My proud mountains
TTITLE12=Why she's acting this way
TTITLE13=FFV
TTITLE14=Rake
TTITLE15=Nothin'
TTITLE16=Fare the well, Miss Carousel
TTITLE17=German Mustard (A clap-a-long)
EXTD=
EXTT0=
EXTT1=
EXTT2=
EXTT3=
EXTT4=
EXTT5=
EXTT6=
EXTT7=
EXTT8=
EXTT9=
EXTT10=
EXTT11=
EXTT12=
EXTT13=
EXTT14=
EXTT15=
EXTT16=
EXTT17=
PLAYORDER=
